<svg xmlns="http://www.w3.org/2000/svg"
     width="100" height="45">
    <path transform="translate(0,-30) scale(2.5)"
            d="M24.605 18.667l-2.715 4.266 2.784 4.3h-3.506l-.962-1.766c-.103-.167-.24-.467-.24-.467h-.035s-.137.3-.24.467l-.962 1.766h-3.506l2.784-4.3-2.818-4.266h3.574l.79 1.5c.138.233.31.5.31.5h.034s.206-.267.31-.5l.824-1.5h3.574zm-12.096 2.166c.996.667 1.752 1.6 1.752 3.034 0 2.2-1.821 4.366-5.464 4.366-3.574 0-5.464-2.166-5.464-4.433 0-1.867 1.581-3.167 2.028-3.5-.79-.667-1.34-1.5-1.34-2.733 0-2.067 1.512-4.1 4.948-4.134 2.75 0 4.983 1.467 4.983 4.134 0 1.533-1.306 3.1-1.443 3.266zm-3.609-4.3c-.927 0-1.34.5-1.34 1.134 0 .933 1.065 1.433 2.371 1.966.138-.233.516-.9.516-1.766 0-.8-.584-1.334-1.547-1.334zm25.774 4.3c.996.667 1.752 1.6 1.752 2.967 0 2.2-1.821 4.367-5.464 4.367-3.574 0-5.464-2.167-5.464-4.434 0-1.833 1.581-3.133 2.028-3.466-.79-.667-1.34-1.5-1.34-2.734 0-2.066 1.512-4.1 4.948-4.1 2.75 0 4.983 1.467 4.983 4.134 0 1.533-1.306 3.1-1.443 3.266zm-25.877 4.3c1.1 0 1.753-.5 1.753-1.466 0-.8-1.306-1.3-2.75-1.934-.343.367-.79.967-.79 1.734 0 .933.79 1.666 1.787 1.666zm22.165 0c1.1 0 1.753-.5 1.753-1.466 0-.8-1.306-1.3-2.75-1.934-.343.367-.79.967-.79 1.734 0 .933.79 1.666 1.787 1.666zm.103-8.6c-.928 0-1.34.5-1.34 1.134 0 .933 1.065 1.433 2.371 1.966.138-.233.516-.9.516-1.766 0-.8-.585-1.334-1.547-1.334z" fill="#e2231a" fill-rule="nonzero"/>
</svg>